<?xml version="1.0" standalone="no"?>
<!DOCTYPE svg PUBLIC "-//W3C//DTD SVG 20010904//EN"
 "http://www.w3.org/TR/2001/REC-SVG-20010904/DTD/svg10.dtd">
<svg version="1.0" xmlns="http://www.w3.org/2000/svg"
 width="1200.000000pt" height="400.000000pt" viewBox="0 0 1200.000000 400.000000"
 preserveAspectRatio="xMidYMid meet">

<g transform="translate(0.000000,400.000000) scale(0.100000,-0.100000)"
fill="#000000" stroke="none">
<path d="M2954 3781 c-11 -5 -33 -23 -47 -41 -44 -52 -31 -133 28 -176 l25
-19 -50 -249 c-27 -137 -52 -251 -54 -253 -2 -2 -45 101 -95 228 l-92 233 25
20 c33 29 46 58 46 106 0 34 -6 48 -34 76 -28 28 -42 34 -75 34 -85 0 -138
-56 -128 -134 5 -39 42 -86 76 -97 8 -3 11 -73 9 -252 l-3 -247 -116 182 -115
181 18 36 c10 19 18 47 18 61 0 55 -65 120 -120 120 -11 0 -35 -6 -53 -14
-109 -45 -81 -218 37 -228 32 -3 26 21 76 -288 22 -135 42 -255 45 -266 3 -12
24 -44 47 -70 96 -110 110 -156 64 -211 -31 -36 -76 -138 -76 -169 0 -13 12
-37 28 -54 32 -37 67 -43 337 -61 242 -15 671 3 746 32 34 13 53 49 46 91 -9
64 -34 135 -55 163 -43 55 -29 101 66 209 23 26 44 58 47 70 3 11 23 131 45
266 50 309 44 285 76 288 86 7 136 114 88 188 -19 29 -69 54 -106 54 -34 0
-85 -35 -103 -69 -20 -39 -19 -69 3 -112 l18 -36 -50 -79 c-28 -43 -81 -126
-118 -184 l-68 -105 0 237 0 237 30 17 c32 19 60 68 60 104 0 89 -99 147 -180
105 -43 -22 -60 -53 -60 -109 0 -43 4 -53 35 -81 l35 -33 -91 -224 c-50 -122
-92 -224 -93 -226 -2 -1 -26 114 -55 255 l-51 258 25 19 c63 45 73 127 22 182
-34 38 -91 53 -133 35z m86 -76 c29 -35 4 -95 -40 -95 -28 0 -52 25 -52 53 0
36 19 57 52 57 15 0 33 -7 40 -15z m-380 -45 c24 -24 25 -38 4 -68 -17 -24
-62 -30 -82 -10 -20 20 -14 65 10 82 30 21 44 20 68 -4z m758 -23 c15 -12 16
-59 0 -75 -17 -17 -64 -15 -82 4 -50 49 25 115 82 71z m-1114 -133 c22 -21 20
-57 -4 -79 -46 -41 -116 29 -75 75 22 24 58 26 79 4z m1471 -4 c41 -46 -29
-116 -75 -75 -24 22 -26 58 -4 79 21 22 57 20 79 -4z m-727 -337 c24 -120 43
-221 42 -225 0 -5 -40 -8 -90 -8 -49 0 -90 3 -90 8 -1 19 85 442 90 442 3 0
25 -98 48 -217z m-304 -31 c42 -107 76 -197 76 -202 0 -5 -36 -10 -80 -12
l-80 -3 0 209 c0 115 2 207 4 205 3 -2 39 -91 80 -197z m596 -13 l0 -202 -75
5 c-42 3 -78 7 -80 10 -5 4 146 388 153 388 1 0 2 -91 2 -201z m-865 -60 c53
-83 95 -153 93 -154 -2 -2 -34 -5 -73 -7 l-69 -3 -26 158 c-15 86 -26 157 -24
157 1 0 46 -68 99 -151z m1125 -6 l-26 -158 -59 3 c-33 2 -65 7 -71 10 -7 5
22 59 83 155 52 81 96 147 97 147 2 0 -9 -71 -24 -157z m-320 -203 c151 -13
280 -30 280 -39 -1 -3 -21 -28 -45 -54 l-44 -48 -113 10 c-62 6 -223 11 -358
11 -135 0 -296 -5 -358 -11 l-113 -10 -44 48 c-24 26 -44 51 -45 54 0 8 128
27 260 38 137 12 446 12 580 1z m-46 -190 c104 -6 190 -11 191 -13 1 -1 0 -24
-3 -50 -4 -44 -6 -48 -26 -43 -11 3 -105 11 -208 18 -145 9 -231 9 -375 0
-104 -7 -198 -15 -209 -18 -20 -5 -22 -1 -26 43 -3 26 -4 49 -2 51 2 4 280 19
384 20 47 1 170 -3 274 -8z m146 -170 c81 -12 100 -26 100 -72 0 -16 7 -40 16
-54 10 -15 13 -29 8 -34 -30 -30 -543 -50 -781 -31 -250 20 -259 23 -233 79
42 93 44 96 84 104 133 28 640 32 806 8z"/>
<path d="M4945 3776 c-54 -24 -78 -60 -83 -124 -4 -51 -1 -62 22 -89 l27 -32
-63 -33 c-87 -46 -187 -147 -228 -232 -28 -56 -34 -82 -38 -151 -6 -111 14
-172 78 -236 l47 -47 -28 -36 c-14 -20 -34 -66 -43 -102 -29 -117 -2 -160 124
-199 30 -9 62 -20 70 -23 22 -9 -98 -19 -231 -21 -131 -1 -217 -14 -270 -41
-35 -18 -99 -82 -99 -99 0 -5 12 -20 26 -34 33 -33 83 -43 126 -26 22 8 124
14 298 19 160 4 276 11 293 18 20 9 34 9 55 0 16 -7 132 -14 292 -18 174 -5
276 -11 298 -19 18 -8 47 -10 66 -7 33 6 86 49 86 69 0 17 -74 77 -128 104
-49 24 -67 26 -245 34 -106 4 -203 8 -216 9 -37 0 -14 15 44 29 82 20 133 55
145 101 14 51 -11 155 -49 206 l-28 36 47 47 c63 63 84 125 78 235 -4 66 -11
94 -38 150 -41 86 -139 187 -228 234 l-63 33 27 32 c23 27 26 38 22 89 -5 65
-29 100 -85 124 -40 17 -69 17 -108 0z m106 -75 c17 -13 23 -29 23 -56 0 -71
-79 -101 -131 -49 -66 66 35 165 108 105z m26 -238 c104 -52 203 -144 245
-230 60 -123 38 -268 -50 -328 -36 -25 -38 -25 -272 -25 -234 0 -236 0 -272
25 -88 60 -110 205 -50 328 42 84 141 178 243 229 41 20 75 37 77 38 2 0 37
-17 79 -37z m177 -693 c65 -72 72 -70 -254 -70 -326 0 -319 -2 -254 70 l36 40
218 0 218 0 36 -40z m54 -157 c-21 -108 -595 -108 -616 0 -3 16 21 17 308 17
287 0 311 -1 308 -17z m-228 -196 c41 -14 100 -21 235 -28 99 -5 202 -11 229
-13 47 -5 152 -56 129 -63 -6 -2 -45 3 -87 11 -54 12 -134 16 -284 16 -150 0
-222 4 -255 14 -40 12 -54 12 -94 0 -33 -10 -105 -14 -257 -14 -148 0 -232 -5
-281 -15 -38 -8 -79 -15 -90 -15 -17 1 -16 4 10 25 41 34 93 42 295 50 181 7
288 23 337 49 15 8 35 12 43 9 8 -3 40 -15 70 -26z"/>
<path d="M4975 3328 c-2 -7 -6 -31 -7 -53 l-3 -40 -50 -5 c-45 -5 -50 -7 -50
-30 0 -23 5 -25 50 -30 l50 -5 5 -50 c5 -45 7 -50 30 -50 23 0 25 5 30 50 l5
50 50 5 c45 5 50 7 50 30 0 23 -5 25 -50 30 l-50 5 -5 50 c-4 42 -8 50 -28 53
-12 2 -24 -3 -27 -10z"/>
<path d="M982 3758 c-7 -7 -12 -27 -12 -45 0 -32 -1 -33 -42 -33 -54 0 -71
-11 -66 -41 3 -21 9 -24 56 -27 l52 -3 0 -54 c0 -50 -2 -56 -29 -69 -39 -20
-98 -91 -112 -133 -6 -19 -9 -56 -7 -83 3 -49 3 -49 -19 -35 -13 8 -33 21 -45
29 -91 57 -256 74 -346 36 -103 -44 -173 -149 -180 -271 -4 -66 -1 -84 20
-130 31 -67 99 -144 173 -194 l55 -38 0 -169 0 -168 73 -34 c39 -19 110 -45
157 -58 76 -20 106 -23 275 -22 178 0 196 2 280 28 49 15 116 42 150 59 l60
32 5 157 5 157 71 49 c173 122 246 272 199 413 -25 75 -109 158 -190 188 -105
39 -263 24 -352 -34 -31 -21 -33 -20 -33 25 0 22 -6 55 -14 74 -18 42 -71 103
-107 122 -27 13 -29 19 -29 69 l0 54 53 3 c46 3 52 6 55 27 5 30 -12 41 -65
41 -42 0 -43 1 -43 33 0 30 -14 57 -30 57 -3 0 -11 -5 -18 -12z m65 -343 c38
-27 63 -79 63 -131 0 -69 -12 -105 -57 -162 -21 -27 -42 -57 -48 -66 -9 -15
-16 -10 -49 35 -45 61 -66 121 -66 192 0 78 52 147 110 147 14 0 35 -7 47 -15z
m-379 -183 c75 -29 175 -104 225 -170 67 -87 77 -112 77 -192 l0 -70 -42 0
c-74 0 -234 -28 -318 -56 -92 -31 -90 -31 -182 42 -96 76 -146 173 -133 259 7
50 59 140 96 167 69 51 174 59 277 20z m884 1 c53 -24 115 -83 134 -129 22
-52 18 -128 -10 -182 -42 -83 -198 -218 -241 -208 -11 2 -46 14 -78 25 -68 25
-166 46 -259 56 l-68 7 0 71 c0 59 5 83 29 132 94 197 322 303 493 228z m-316
-527 c33 -8 86 -24 117 -36 56 -21 57 -22 57 -62 0 -34 -3 -39 -17 -35 -143
48 -204 59 -359 64 -180 6 -285 -5 -404 -43 -41 -13 -78 -24 -82 -24 -13 0 -9
67 5 77 24 19 103 45 192 64 111 23 392 20 491 -5z m-8 -155 c48 -11 108 -29
135 -40 45 -19 47 -22 47 -60 l0 -40 -57 20 c-116 40 -212 53 -373 53 -161 0
-266 -15 -380 -55 -30 -10 -56 -19 -57 -19 -2 0 -3 18 -3 40 0 36 3 41 38 55
60 26 173 54 253 64 104 14 293 5 397 -18z m-55 -145 c102 -17 189 -44 182
-57 -11 -17 -162 -57 -260 -69 -116 -14 -235 -7 -350 20 -76 18 -155 46 -155
54 0 7 110 37 185 51 95 18 291 18 398 1z"/>
<path d="M6887 3699 c-15 -12 -41 -41 -58 -65 -19 -27 -38 -44 -50 -44 -12 0
-44 25 -77 60 -59 61 -83 71 -116 47 -15 -11 -17 -24 -12 -88 3 -40 5 -83 6
-94 0 -10 -13 -37 -29 -60 -58 -77 -153 -241 -234 -403 -77 -154 -82 -168 -81
-225 1 -74 30 -147 69 -173 15 -10 52 -20 83 -22 40 -3 61 -10 70 -23 9 -13
25 -19 52 -19 45 0 81 26 126 91 16 24 78 78 139 124 61 45 136 106 169 135
l58 54 -6 -44 c-20 -124 -58 -192 -180 -320 -119 -125 -152 -176 -171 -268
-19 -85 -18 -97 1 -116 14 -14 76 -16 533 -16 451 0 520 2 531 15 21 25 7 429
-20 585 -55 315 -163 517 -343 638 -76 50 -205 99 -288 109 -47 6 -47 6 -54
49 -7 51 -38 94 -68 94 -12 0 -34 -10 -50 -21z m53 -103 c0 -57 16 -72 87 -81
89 -11 203 -51 271 -94 232 -150 335 -426 358 -953 l7 -168 -482 0 -482 0 7
38 c13 75 43 122 148 232 155 162 198 250 211 427 4 48 14 106 22 129 8 23 13
54 11 70 -6 53 -68 39 -68 -15 0 -60 -117 -193 -264 -299 -101 -72 -166 -132
-201 -182 -36 -51 -62 -55 -38 -6 20 43 11 84 -21 92 -39 9 -66 -11 -66 -51 0
-35 0 -35 -44 -35 -26 0 -51 6 -59 15 -24 23 -40 83 -35 130 8 68 197 429 290
552 53 70 71 128 51 166 -8 16 -13 38 -11 50 3 19 10 13 46 -35 42 -58 43 -58
95 -58 59 0 65 3 91 45 24 38 57 75 68 75 4 0 8 -20 8 -44z"/>
<path d="M6624 3375 c-33 -33 -57 -92 -50 -121 4 -15 16 -26 33 -30 22 -6 32
-1 59 29 38 41 58 101 43 128 -14 27 -55 24 -85 -6z"/>
<path d="M6362 2908 c-30 -37 -6 -98 38 -98 41 0 68 68 38 98 -16 16 -63 15
-76 0z"/>
<path d="M8466 3622 c-2 -4 -6 -65 -7 -136 l-2 -127 66 -67 67 -68 0 -261 0
-262 -27 -46 c-16 -25 -33 -45 -39 -45 -18 0 -24 -26 -24 -105 l0 -74 -62 -3
-63 -3 -3 -83 c-2 -53 1 -89 9 -98 17 -21 1221 -21 1238 0 8 9 11 45 9 98 l-3
83 -62 3 -63 3 0 74 c0 81 -6 105 -25 105 -7 0 -25 21 -39 46 l-26 47 0 261 0
260 67 68 66 67 -2 128 c-1 70 -6 132 -10 136 -4 4 -57 6 -117 5 l-109 -3 -3
-43 -3 -43 -77 3 -77 3 -5 40 -5 40 -135 0 -135 0 -5 -40 -5 -40 -77 -3 -77
-3 -3 43 -3 43 -112 3 c-61 1 -114 -1 -117 -6z m164 -86 c0 -52 13 -57 156
-54 l129 3 3 43 3 42 79 0 79 0 3 -42 3 -43 129 -3 c143 -3 156 2 156 54 l0
34 55 0 55 0 0 -80 0 -80 -480 0 -480 0 0 80 0 80 55 0 55 0 0 -34z m765 -226
l-29 -30 -366 0 -366 0 -29 30 -29 30 424 0 424 0 -29 -30z m-55 -330 l0 -260
-340 0 -340 0 0 260 0 260 340 0 340 0 0 -260z m19 -324 c12 -18 21 -36 21
-40 0 -3 -171 -6 -380 -6 -209 0 -380 3 -380 6 0 4 9 22 21 40 l21 34 338 0
338 0 21 -34z m71 -171 l0 -55 -430 0 -430 0 0 55 0 55 430 0 430 0 0 -55z
m138 -154 l3 -31 -570 0 -571 0 0 28 c0 16 2 31 4 33 2 2 258 3 568 2 l563 -1
3 -31z"/>
<path d="M10879 3607 c-85 -45 -131 -158 -101 -245 10 -28 7 -34 -33 -75 -98
-103 -114 -286 -35 -397 11 -15 20 -30 20 -33 0 -3 -23 -22 -51 -43 -136 -104
-225 -293 -244 -516 l-7 -88 548 0 547 0 -6 98 c-8 119 -27 192 -77 297 -41
85 -126 188 -185 225 l-34 21 29 45 c77 123 62 278 -40 388 -40 43 -41 47 -31
77 32 93 -16 201 -110 250 -54 27 -134 25 -190 -4z m158 -57 c79 -35 105 -124
62 -205 l-21 -39 23 -16 c87 -57 129 -131 129 -224 -1 -78 -24 -130 -86 -189
l-48 -46 30 -11 c105 -40 189 -118 248 -229 41 -78 76 -202 76 -268 l0 -43
-476 0 -476 0 7 53 c31 248 157 431 338 491 15 5 9 14 -37 59 -53 53 -86 121
-86 182 0 57 33 131 79 175 25 25 54 50 63 55 17 9 16 13 -8 61 -31 63 -26
110 18 160 47 53 100 64 165 34z"/>
<path d="M4945 1776 c-54 -24 -78 -60 -83 -124 -4 -51 -1 -62 22 -89 l27 -32
-63 -33 c-87 -46 -187 -147 -228 -232 -28 -56 -34 -82 -38 -151 -6 -111 14
-172 78 -236 l46 -46 -28 -39 c-15 -22 -30 -52 -34 -69 l-5 -30 361 0 362 0
-6 30 c-4 17 -19 47 -34 69 l-28 39 46 46 c63 63 84 125 78 235 -4 66 -11 94
-38 150 -41 86 -139 187 -228 234 l-63 33 27 32 c23 27 26 38 22 89 -5 65 -29
100 -85 124 -40 17 -69 17 -108 0z m85 -491 l5 -50 50 -5 c45 -5 50 -7 50 -30
0 -23 -5 -25 -50 -30 l-50 -5 -5 -50 c-5 -45 -7 -50 -30 -50 -23 0 -25 5 -30
50 l-5 50 -50 5 c-45 5 -50 7 -50 30 0 23 5 25 50 30 l50 5 3 40 c4 57 9 67
34 63 20 -3 24 -11 28 -53z m214 -421 c12 -12 13 -20 6 -35 -10 -18 -24 -19
-250 -19 -226 0 -240 1 -250 19 -7 15 -6 23 6 35 23 24 465 24 488 0z"/>
<path d="M982 1758 c-7 -7 -12 -27 -12 -45 0 -32 -1 -33 -42 -33 -54 0 -71
-11 -66 -41 3 -21 9 -24 56 -27 l52 -3 0 -54 c0 -50 -2 -56 -29 -69 -39 -20
-98 -91 -112 -133 -6 -19 -9 -56 -7 -83 3 -49 3 -49 -19 -35 -13 8 -33 21 -45
29 -91 57 -256 74 -346 36 -103 -44 -173 -149 -180 -271 -6 -104 22 -166 116
-258 81 -79 127 -108 135 -87 4 10 -11 26 -44 46 -111 72 -181 183 -181 285 0
105 49 188 140 232 167 82 424 -17 580 -222 l23 -30 16 25 c9 14 48 57 87 96
84 83 180 136 285 154 126 23 247 -23 316 -119 42 -60 48 -157 13 -233 -31
-67 -109 -153 -181 -198 -32 -20 -56 -42 -57 -52 0 -34 -32 -38 -94 -11 -117
49 -201 65 -371 70 -185 5 -311 -14 -436 -66 -54 -23 -76 -28 -86 -20 -10 9
-13 0 -13 -49 l0 -60 48 23 c135 65 283 90 500 83 173 -6 274 -26 389 -78 l63
-29 0 58 0 57 70 48 c176 121 252 275 205 417 -25 75 -109 158 -190 188 -105
39 -263 24 -352 -34 -31 -21 -33 -20 -33 25 0 22 -6 55 -14 74 -18 42 -71 103
-107 122 -27 13 -29 19 -29 69 l0 54 53 3 c46 3 52 6 55 27 5 30 -12 41 -65
41 -42 0 -43 1 -43 33 0 30 -14 57 -30 57 -3 0 -11 -5 -18 -12z"/>
<path d="M2955 1756 c-47 -21 -67 -51 -73 -106 -4 -49 -3 -52 36 -90 l41 -39
-49 -237 c-27 -130 -51 -239 -53 -241 -2 -2 -43 98 -90 222 l-86 224 29 30
c25 25 30 38 30 78 0 55 -17 86 -60 108 -81 42 -180 -16 -180 -105 0 -38 30
-87 66 -106 l34 -19 -1 -135 c-1 -74 -4 -180 -8 -234 l-6 -99 -117 180 -118
180 20 38 c25 49 25 81 0 123 -73 120 -253 44 -218 -92 10 -39 45 -75 82 -84
l31 -8 57 -282 c50 -251 59 -287 85 -318 97 -120 103 -129 103 -166 0 -24 -8
-46 -24 -65 -30 -36 -76 -137 -76 -168 0 -65 75 -102 295 -148 149 -31 437
-30 590 1 147 30 224 55 252 82 24 23 33 50 11 33 -19 -15 -130 -50 -233 -74
-141 -32 -423 -38 -580 -11 -127 22 -282 66 -303 86 -14 14 -7 42 13 50 7 2
53 -8 101 -24 268 -85 613 -86 878 -3 44 14 85 27 91 30 7 2 20 -4 30 -14 18
-17 18 -17 13 7 -18 78 -37 130 -56 155 -14 17 -22 42 -22 64 0 36 6 46 103
165 26 31 35 67 85 318 l57 282 31 8 c84 21 115 132 55 197 -55 59 -148 48
-191 -21 -25 -42 -25 -74 0 -123 l20 -38 -118 -180 -117 -180 -6 99 c-4 54 -7
160 -8 234 l-1 135 34 19 c36 19 66 68 66 106 0 89 -99 147 -180 105 -43 -22
-60 -53 -60 -108 0 -40 5 -53 29 -78 l30 -29 -86 -225 c-47 -124 -88 -224 -90
-222 -2 2 -26 111 -53 241 l-49 237 39 38 c33 32 40 44 40 77 0 47 -16 81 -50
105 -34 26 -79 32 -115 15z m330 -951 c50 -9 126 -28 170 -43 66 -22 81 -31
83 -50 5 -35 -20 -36 -124 -7 -137 39 -258 55 -414 55 -156 0 -277 -16 -414
-55 -104 -29 -129 -28 -124 7 2 18 17 28 65 45 67 24 176 48 283 63 94 13 370
4 475 -15z m189 -190 c3 -8 3 -22 0 -30 -5 -13 -67 -15 -474 -15 -407 0 -469
2 -474 15 -3 8 -3 22 0 30 5 13 67 15 474 15 407 0 469 -2 474 -15z m-852
-145 c250 -63 506 -63 758 1 66 16 125 27 130 24 14 -9 12 -41 -2 -53 -7 -5
-47 -19 -88 -31 -259 -71 -570 -71 -839 1 -84 23 -110 41 -98 72 8 20 2 21
139 -14z"/>
<path d="M6887 1699 c-15 -12 -41 -41 -58 -65 -19 -27 -38 -44 -50 -44 -12 0
-44 25 -77 60 -59 61 -83 71 -116 47 -15 -11 -17 -24 -12 -88 3 -40 5 -83 6
-94 0 -10 -13 -37 -29 -60 -58 -77 -153 -241 -234 -403 -77 -154 -82 -168 -81
-225 1 -74 30 -147 69 -173 15 -10 52 -20 83 -22 40 -3 61 -10 70 -23 9 -13
25 -19 52 -19 45 0 81 26 126 91 16 24 78 78 139 124 61 45 136 106 169 135
l58 54 -6 -44 c-20 -124 -58 -192 -180 -320 -119 -125 -152 -176 -171 -268
-19 -85 -18 -97 1 -116 14 -14 76 -16 533 -16 451 0 520 2 531 15 21 25 7 429
-20 585 -55 315 -163 517 -343 638 -76 50 -205 99 -288 109 -47 6 -47 6 -54
49 -7 51 -38 94 -68 94 -12 0 -34 -10 -50 -21z m293 -181 c196 -59 353 -250
424 -518 47 -172 60 -288 60 -530 l1 -225 -47 -3 -48 -3 0 201 c0 110 -5 244
-11 298 -43 391 -186 628 -434 717 -27 10 -51 19 -53 20 -1 1 3 16 9 33 12 34
15 35 99 10z m-471 -137 c15 -27 -5 -87 -43 -128 -27 -30 -37 -35 -59 -29 -34
8 -43 42 -23 89 31 75 101 113 125 68z m-271 -473 c17 -17 15 -64 -4 -82 -48
-49 -116 28 -72 82 13 15 60 16 76 0z"/>
<path d="M8466 1622 c-9 -15 -9 -263 0 -270 5 -5 35 -29 67 -56 l57 -48 0
-273 0 -274 -27 -46 c-16 -25 -33 -45 -39 -45 -18 0 -24 -26 -24 -105 l0 -74
-62 -3 -63 -3 -3 -83 c-2 -53 1 -89 9 -98 17 -21 1221 -21 1238 0 8 9 11 45 9
98 l-3 83 -62 3 -63 3 0 74 c0 81 -6 105 -25 105 -7 0 -25 21 -39 46 l-26 47
0 273 0 273 63 52 c34 28 64 57 67 63 3 6 3 67 0 136 l-5 125 -115 0 -115 0
-3 -43 -3 -43 -77 3 -77 3 -5 40 -5 40 -135 0 -135 0 -5 -40 -5 -40 -77 -3
-77 -3 -3 43 -3 43 -112 3 c-61 1 -114 -1 -117 -6z m1062 -244 c3 -17 -27 -18
-527 -18 -436 0 -531 2 -531 13 0 8 3 17 7 20 3 4 241 6 527 5 487 -3 521 -4
524 -20z m-131 -104 c3 -9 0 -20 -8 -25 -18 -11 -760 -11 -778 0 -8 5 -11 16
-8 25 6 14 48 16 397 16 349 0 391 -2 397 -16z m-2 -584 c0 -13 -51 -15 -389
-18 -229 -1 -394 2 -399 7 -28 28 11 31 396 29 341 -3 392 -5 392 -18z m45
-90 c0 -20 -7 -20 -440 -20 -433 0 -440 0 -440 20 0 20 7 20 440 20 433 0 440
0 440 -20z m45 -180 c0 -13 -61 -15 -479 -18 -284 -1 -484 2 -489 7 -29 29 11
31 486 29 421 -3 482 -5 482 -18z"/>
<path d="M10879 1607 c-85 -45 -131 -158 -101 -245 10 -28 7 -34 -33 -75 -98
-103 -114 -286 -35 -397 11 -15 20 -30 20 -33 0 -3 -23 -22 -51 -43 -136 -104
-225 -293 -244 -517 l-7 -87 548 0 547 0 -6 98 c-8 119 -27 192 -77 297 -41
85 -126 188 -185 225 l-34 21 29 45 c77 123 62 278 -40 388 -40 43 -41 47 -31
77 32 93 -16 201 -110 250 -54 27 -134 25 -190 -4z"/>
<path d="M435 1191 c-67 -30 -115 -104 -115 -177 0 -74 62 -164 153 -223 34
-23 68 -46 75 -51 8 -8 32 -5 80 10 74 23 234 50 300 50 l42 0 0 50 c0 64 -26
116 -94 188 -130 140 -324 207 -441 153z"/>
<path d="M1345 1192 c-114 -39 -220 -125 -280 -226 -28 -48 -35 -70 -35 -112
l0 -52 68 -7 c90 -9 189 -30 259 -55 l57 -20 54 33 c29 17 78 56 108 85 116
113 132 221 47 304 -68 66 -175 86 -278 50z"/>
<path d="M4624 647 c-3 -8 0 -33 6 -55 12 -47 45 -71 130 -97 30 -9 62 -20 70
-23 22 -9 -98 -19 -231 -21 -131 -1 -217 -14 -270 -41 -35 -18 -99 -82 -99
-99 0 -5 12 -20 26 -34 33 -33 83 -43 126 -26 22 8 124 14 298 19 160 4 276
11 293 18 20 9 34 9 55 0 16 -7 132 -14 292 -18 174 -5 276 -11 298 -19 18 -8
47 -10 66 -7 33 6 86 49 86 69 0 17 -74 77 -128 104 -49 24 -67 26 -245 34
-106 4 -203 8 -216 9 -37 0 -14 15 44 29 83 20 133 55 145 102 14 53 7 78 -16
55 -13 -14 -59 -16 -354 -16 -295 0 -341 2 -354 16 -14 13 -17 14 -22 1z"/>
<path d="M836 570 c-96 -12 -159 -28 -249 -62 -43 -16 -84 -27 -92 -24 -12 4
-15 -6 -15 -49 0 -30 2 -55 4 -55 2 0 29 12 61 26 142 65 362 95 553 76 129
-13 272 -50 340 -87 l42 -24 0 65 c0 60 -1 63 -19 53 -15 -10 -32 -6 -92 18
-41 17 -110 38 -153 47 -97 20 -287 28 -380 16z"/>
<path d="M774 405 c-109 -20 -254 -70 -254 -87 0 -14 100 -55 193 -81 72 -19
105 -22 272 -21 177 0 196 2 278 27 49 15 109 38 135 51 l46 23 -34 18 c-144
74 -436 107 -636 70z"/>
</g>
</svg>
